# xmcd
#
# Track frame offsets:
# 150
# 15039
# 31831
# 46492
# 62059
# 80564
# 95295
# 106139
# 120762
# 139201
#
# Disc length: 2035 seconds
#
# Revision: 0
# Processed by: cddbd v1.5.2PL0 Copyright (c) Steve Scherf et al.
# Submitted via: TinyPlayer 2.8
#
DISCID=6c07f10a
DTITLE=Johnny Van Zant Band - Round Two [Remastered]
DYEAR=2012
DGENRE=Southern Rock
TTITLE0=(Who's) Right or Wrong
TTITLE1=Standing in the Falling Rain
TTITLE2=Yesterday's Gone
TTITLE3=Let There Be Music
TTITLE4=Keep Our Love Alive
TTITLE5=Night Time Lady
TTITLE6=Drive My Car
TTITLE7=Shotdown
TTITLE8=Cold Hearted Woman
TTITLE9=Play My Music
EXTD=Location:  - UPC: 8275650592492 - Catalogue number: CANDY138 - Label: Rock Candy Records - ASIN: B008B0WOFU - Release Date: 2012 07 23 - Discogs: a2389609,m323173 - MUSICBRAINZ_ALBUMID:  - AMG: MN0000251276 - 
EXTT0=
EXTT1=
EXTT2=
EXTT3=
EXTT4=
EXTT5=
EXTT6=
EXTT7=
EXTT8=
EXTT9=
PLAYORDER=
